<svg xmlns="http://www.w3.org/2000/svg" width="256" height="256" viewBox="0 0 256 256">
  <ellipse cx="128" cy="145" rx="52" ry="48" fill="#f9e5b8" stroke="#2d3436" stroke-width="4.5" stroke-linecap="round" stroke-linejoin="round"/>
  <path d="M85 115 Q75 60 95 50 Q110 45 115 75 Z" fill="#a8e6cf" stroke="#2d3436" stroke-width="4.5" stroke-linecap="round" stroke-linejoin="round"/>
  <path d="M171 115 Q181 60 161 50 Q146 45 141 75 Z" fill="#a8e6cf" stroke="#2d3436" stroke-width="4.5" stroke-linecap="round" stroke-linejoin="round"/>
  <path d="M95 50 Q100 35 108 42 Q112 48 105 55 Z" fill="#7ed957" stroke="#2d3436" stroke-width="3" stroke-linecap="round" stroke-linejoin="round"/>
  <path d="M161 50 Q156 35 148 42 Q144 48 151 55 Z" fill="#7ed957" stroke="#2d3436" stroke-width="3" stroke-linecap="round" stroke-linejoin="round"/>
  <ellipse cx="128" cy="130" rx="38" ry="32" fill="#fff" stroke="#2d3436" stroke-width="4.5" stroke-linecap="round" stroke-linejoin="round"/>
  <circle cx="112" cy="128" r="10" fill="#2d3436"/>
  <circle cx="144" cy="128" r="10" fill="#2d3436"/>
  <circle cx="115" cy="124" r="4" fill="#fff"/>
  <circle cx="147" cy="124" r="4" fill="#fff"/>
  <circle cx="117" cy="131" r="2" fill="#fff"/>
  <circle cx="149" cy="131" r="2" fill="#fff"/>
  <ellipse cx="95" cy="145" rx="12" ry="8" fill="#ff9ff3"/>
  <line x1="88" y1="142" x2="98" y2="148" stroke="#2d3436" stroke-width="1.5" stroke-linecap="round"/>
  <line x1="90" y1="145" x2="100" y2="151" stroke="#2d3436" stroke-width="1.5" stroke-linecap="round"/>
  <ellipse cx="161" cy="145" rx="12" ry="8" fill="#ff9ff3"/>
  <line x1="154" y1="142" x2="164" y2="148" stroke="#2d3436" stroke-width="1.5" stroke-linecap="round"/>
  <line x1="156" y1="145" x2="166" y2="151" stroke="#2d3436" stroke-width="1.5" stroke-linecap="round"/>
  <path d="M128 148 Q124 155 128 158 Q132 155 128 148 Z" fill="#2d3436"/>
  <path d="M128 158 Q120 165 128 168 Q136 165 128 158 Z" fill="#ff9ff3" stroke="#2d3436" stroke-width="2" stroke-linecap="round" stroke-linejoin="round"/>
  <ellipse cx="105" cy="185" rx="14" ry="10" fill="#f9e5b8" stroke="#2d3436" stroke-width="4.5" stroke-linecap="round" stroke-linejoin="round"/>
  <ellipse cx="151" cy="185" rx="14" ry="10" fill="#f9e5b8" stroke="#2d3436" stroke-width="4.5" stroke-linecap="round" stroke-linejoin="round"/>
  <path d="M175 155 Q210 130 220 160 Q225 185 200 195 Q180 198 175 175 Z" fill="#a8e6cf" stroke="#2d3436" stroke-width="4.5" stroke-linecap="round" stroke-linejoin="round"/>
  <circle cx="205" cy="155" r="5" fill="#ff9ff3"/>
  <circle cx="215" cy="170" r="4" fill="#7ed957"/>
  <circle cx="195" cy="180" r="4" fill="#ff9ff3"/>
  <circle cx="210" cy="185" r="3" fill="#f9e5b8"/>
</svg>